<svg xmlns:xlink="http://www.w3.org/1999/xlink" xmlns="http://www.w3.org/2000/svg" class="svg-icon article-info__expert-badge__icon" width="18" height="18"><defs><symbol xmlns="http://www.w3.org/2000/svg" viewBox="0 0 18 18" fill="none" id="expert-reviewed"><clipPath id="clip0_1326_2416" fill="none"><rect width="18" height="18" fill="#FFFFFF"></rect></clipPath><path d="M16.5 9L14.8364 7.00714L15.0682 4.37143L12.6068 3.78571L11.3182 1.5L9 2.54286L6.68182 1.5L5.39318 3.77857L2.93182 4.35714L3.16364 7L1.5 9L3.16364 10.9929L2.93182 13.6357L5.39318 14.2214L6.68182 16.5L9 15.45L11.3182 16.4929L12.6068 14.2143L15.0682 13.6286L14.8364 10.9929L16.5 9ZM7.69773 12.3714L5.10682 9.65L6.11591 8.59286L7.69773 10.2571L11.6864 6.06429L12.6955 7.12143L7.69773 12.3714Z" fill="#173696"></path></symbol></defs>
<use xlink:href="#expert-reviewed" fill="#595959"></use>
</svg>