<svg xmlns:xlink="http://www.w3.org/1999/xlink" class="ea-editors-choice-badge__green product-component-images__ea_badge product-component-images__ea_badge_upper_left" xmlns="http://www.w3.org/2000/svg" viewBox="0 0 299.31 302.49" width="299.31"  height="302.49" ><path d="M292.75,106.71l-.1.07a4.86,4.86,0,0,0-.47,3.11,4.07,4.07,0,0,0,.28,1,3.46,3.46,0,0,1,.32,1.86c-.14,1.33-2.49,1.72-3.5,1.83a12.24,12.24,0,0,0-1.26.22,12.57,12.57,0,0,1-1.68.25c-.37,0-.75,0-1.13,0s-.79,0-1.16,0a1.57,1.57,0,0,0-1.24.82,2.68,2.68,0,0,0,.33,1.75,1.22,1.22,0,0,0,.58.58,2.57,2.57,0,0,0,1.14-.18,6.44,6.44,0,0,1,1.19-.26c.43,0,.89-.09,1.35-.15s.9-.12,1.31-.16l.52-.19c.56-.08,1-.17,1.44-.27a8.49,8.49,0,0,1,2.26-.26.73.73,0,0,1,.48.3,6.59,6.59,0,0,1,.63,2.29c.27,1.7.52,2.42,1.14,2.37h0a.55.55,0,0,1,.18,0,.9.9,0,0,0,.71-.22,2.34,2.34,0,0,0,.94-1.12.36.36,0,0,1,0-.18,2.18,2.18,0,0,1-.16-.62,11.63,11.63,0,0,0-.22-1.29c-.1-.47-.2-1-.25-1.38l-.51-1.46c-.1-.78-.23-1.43-.36-2.06a20.13,20.13,0,0,1-.33-2l-.3-1.05-.05-.58a5.88,5.88,0,0,0-.33-1.89C293.91,106.69,293.38,106.52,292.75,106.71Z" fill="#1F513F"></path><path d="M275.07,225a2.23,2.23,0,0,0,1.47-1.41,1,1,0,0,0-.24-.84,2.91,2.91,0,0,0-1.75-.8h-.12a2.55,2.55,0,0,0-2.36.64,2.09,2.09,0,0,1-.22.5c0,.1-.11.22-.12.27a1.57,1.57,0,0,0,.09.34l.1.3A3.75,3.75,0,0,0,275.07,225Z" fill="#1F513F"></path><path d="M274.51,91.22l.75-.27.45-.15a6.9,6.9,0,0,0,1.7-.71l.17-.11a3.65,3.65,0,0,1,1.88-.82,1.17,1.17,0,0,1,.41.06.7.7,0,0,1,.58.46,3.33,3.33,0,0,1-.88,2.87l-.27.41a6,6,0,0,0-.5,1.14,6.62,6.62,0,0,1-.71,1.53,5.45,5.45,0,0,1-.73.82,3,3,0,0,0-.76,1,1.43,1.43,0,0,0,0,.26,2.74,2.74,0,0,1-.06.48q-.06.23-.15.51c-.25.79-.39,1.35.07,1.91a1.58,1.58,0,0,0,1.86.36c.28-.18.56-.39.83-.6s.59-.46.9-.66a6.48,6.48,0,0,1,1.46-.64,5.63,5.63,0,0,0,1.17-.49A19.76,19.76,0,0,1,286.41,97l.85-.28c1.48-.51,2.93-1.07,2.88-1.9a.47.47,0,0,1,0-.21c.13-.49-.46-1.23-.81-1.5-.6-.45-1-.27-1.94.4l-.53.35c-.85.52-3.42,1.63-4.53,1.38a.65.65,0,0,1-.49-.47,2.89,2.89,0,0,1,.7-2.35,5.26,5.26,0,0,0,.32-.52l.66-1.29a27.25,27.25,0,0,0,2-4.63,1.34,1.34,0,0,0-.28-1.15,1.56,1.56,0,0,0-1-.65h0a.64.64,0,0,1-.2,0c-.1,0-.45.12-.68.21a3.29,3.29,0,0,1-1.49.69,3.84,3.84,0,0,0-1,.36A20.92,20.92,0,0,1,277.45,87a23.21,23.21,0,0,0-2.79,1.18,4.36,4.36,0,0,1-1.4.4,1.41,1.41,0,0,0-1,2.51C273,91.79,273.24,91.68,274.51,91.22Z" fill="#1F513F"></path><path d="M266.27,77.13a13.21,13.21,0,0,1,.77,1.23c.52.92,1.07,1.88,1.75,1.9a1.3,1.3,0,0,0,.63-.29c.83-.67,1.11-1.3.21-2.72a9.64,9.64,0,0,0-.86-1c-1-1.12-2.15-2.38-1.83-3.63A2.41,2.41,0,0,1,268.71,71a.65.65,0,0,1,.39,0l.59.18a.61.61,0,0,1,.36.27l.16.26c.52.85,2.12,3.4,3,3.4h0a.57.57,0,0,1,.18,0c.05,0,.26,0,.7-.55.67-.85.09-1.65-.94-2.86l-.38-.44A2.7,2.7,0,0,1,272,69.6a1.42,1.42,0,0,1,.39-1.21,1.16,1.16,0,0,1,1.05-.3c.92.07,1.39.93,1.77,1.63a4.85,4.85,0,0,0,.38.65c1.52,2,2.31,2.45,2.57,2.54l.36,0a1.8,1.8,0,0,0,.88-1,1,1,0,0,0-.1-.9,21.6,21.6,0,0,0-1.4-1.9c-.41-.51-.82-1-1.21-1.6l-1.16-2.48a3.87,3.87,0,0,0-.78-.64l-.2-.14a9.57,9.57,0,0,0-1.82.32,4.75,4.75,0,0,1-1,.8,4.94,4.94,0,0,0-.57.42,58.9,58.9,0,0,1-4.91,3.77l-.25.18a5.76,5.76,0,0,1-1.43.71c-.71.27-1.05.43-1.18.89-.4,1.45,1.72,4.25,2.63,5.44Z" fill="#1F513F"></path><path d="M298.49,144.8a1,1,0,0,0-.3-.12,2.72,2.72,0,0,0-.82.07,4.14,4.14,0,0,1-.68.1,2.85,2.85,0,0,1-.95-.09l-.33,0-.93.06a23,23,0,0,1-2.78-.13l-1.57-.23-1.3-.19-1.3,0-.39-.06a1.58,1.58,0,0,0-.51,0h0a1.77,1.77,0,0,0-1.22,1,2,2,0,0,0-.18,1.59.83.83,0,0,0,.3.29l.05,0h.93a46.14,46.14,0,0,1,6.09.28l1.82,0a10.86,10.86,0,0,0,1.35.06,10.61,10.61,0,0,1,1.39.07l.3.05a1.07,1.07,0,0,0,.31,0,1.86,1.86,0,0,0,1.47-1.22,1.37,1.37,0,0,0-.33-1.38A2.85,2.85,0,0,1,298.49,144.8Z" fill="#1F513F"></path><path d="M124.4,14.69c0,.7.85,1.32,1.24,1.49h0a3.19,3.19,0,0,0,1,.25c.36.1.78-.22,1.16-.43a3.93,3.93,0,0,1,.4-.21l.83-.2a10.15,10.15,0,0,1,1.19-.49c.4-.15.79-.29,1.14-.46a3.1,3.1,0,0,1,1.8-.19,1.57,1.57,0,0,0,1,0,1.43,1.43,0,0,0,.74-.92c.06-.13.12-.27.19-.41a1.66,1.66,0,0,0-1.82-1.33l-.87.14a3.86,3.86,0,0,0-1.4.3l-.32.17c-.72.39-1.71.94-2.52.57s-1.18-1.73-1.41-3c-.06-.35-.12-.69-.19-1l-.07-.25a14.41,14.41,0,0,0-.69-2.22,6.69,6.69,0,0,1-.46-2.24c0-.3,0-.59-.1-.84s-.07-.4-.1-.61a3.8,3.8,0,0,0-.43-1.58c-.37-.38-1.1-.45-2.21-.21l-.54.32-.2.31v0a2,2,0,0,0,.09.85l.08.16a3.66,3.66,0,0,1,.52,1.52,8,8,0,0,0,.42,2l.17.57,1.51,6.73a.49.49,0,0,1,0,.17,4.62,4.62,0,0,1-.07.6A3.56,3.56,0,0,0,124.4,14.69Z" fill="#1F513F"></path><path d="M156,9c0,.17-.05.38-.09.62a3.8,3.8,0,0,0,.12,2.44c1,1.56,2.57,1.65,4.55,1.77l.84.05c1.64.12,2.67-.06,3.07-.55a1.09,1.09,0,0,0,.18-.5l.06-.26c-.46-1.18-1.3-1.18-2.89-1-.36,0-.73,0-1.09,0a2.9,2.9,0,0,1-1-.13l-.44-.09a.64.64,0,0,1-.46-.28A2.35,2.35,0,0,1,158.94,8a.65.65,0,0,1,.39-.28,6.21,6.21,0,0,1,2.15,0,3.73,3.73,0,0,0,2.26-.14,1.44,1.44,0,0,0,.34-.48l.12-.22c-.2-1.22-1-1.33-2.54-1.44A5.82,5.82,0,0,1,159.23,5a.68.68,0,0,1-.3-.37,1.87,1.87,0,0,1,.16-1.8,2,2,0,0,1,1.69-.69h.09a5.43,5.43,0,0,1,1.26.22,4.61,4.61,0,0,0,.89.17,1.59,1.59,0,0,0,1.16-.5,1.41,1.41,0,0,0,.41-.75l-.21-.47c-.11-.07-.21-.16-.32-.24a1.39,1.39,0,0,0-.42-.27,2.45,2.45,0,0,0-.95,0,7.35,7.35,0,0,1-.94,0,5.52,5.52,0,0,1-.65-.11L160.57,0l-1.76.11A5.84,5.84,0,0,1,158,.06a2.88,2.88,0,0,0-1.47.07,2.2,2.2,0,0,1-.32.3,2.12,2.12,0,0,0-.21.2,1.44,1.44,0,0,1-.07.36,17.87,17.87,0,0,1,.21,6.74C156.07,8.15,156,8.59,156,9Z" fill="#1F513F"></path><path d="M263.25,59.45a29.07,29.07,0,0,0,3.17-3.09l.56-.62c.6-.63.94-1,.82-1.87-.06-.48-.57-.84-.9-1.08-.74-.51-1.6-.25-3.09.26l-1.57.54-1.19.18a9,9,0,0,1-2.26.19.7.7,0,0,1-.49-.31,1.26,1.26,0,0,1-.3-.7,4.61,4.61,0,0,1,.65-2.16A6.21,6.21,0,0,0,259,50a25.5,25.5,0,0,0,.73-4.69,1.33,1.33,0,0,0-.46-1.24,1.56,1.56,0,0,0-1.39-.17,2.51,2.51,0,0,1-.68.42,1.86,1.86,0,0,0-.34.19l-.68.49a12.85,12.85,0,0,0-1.31,1c-1,.9-2.09,1.82-3.17,2.73-.79.67-1.58,1.33-2.33,2a7.38,7.38,0,0,1-1.56,1c-.94.48-1.36.73-1.38,1.57a1.63,1.63,0,0,0,.85,1.41,1.32,1.32,0,0,0,1.37,0,18.66,18.66,0,0,0,4.22-3.53l.73-.6a.72.72,0,0,1,.19-.11,2.54,2.54,0,0,1,1.31-.21.64.64,0,0,1,.52.49,4.3,4.3,0,0,1-.68,2.67,5.22,5.22,0,0,0-.46,1.08,2.45,2.45,0,0,0,.17,1.11c.79,1.45,1.6,1.38,2.92,1.28.35,0,.73-.06,1.12-.06a5.88,5.88,0,0,1,1.35.15.63.63,0,0,1,.49.49,1.86,1.86,0,0,1-1.09,1.92l-.34.25-.6.46c-.89.66-2.39,1.77-2.5,2.75a1.06,1.06,0,0,0,.33.87,1.64,1.64,0,0,0,2.39.15,18.31,18.31,0,0,0,1.9-1.84c.44-.47.88-.92,1.32-1.33S262.81,59.84,263.25,59.45Z" fill="#1F513F"></path><path d="M298.78,163.19a3.68,3.68,0,0,0-1.7-1.39,3.37,3.37,0,0,0-.77.12,5,5,0,0,1-1,.15h-.11l-1.63-.28c-.86,0-1.89-.09-2.93-.16-.82-.07-1.64-.13-2.43-.16-.29,0-.58,0-.86-.07-1.06-.1-1.73-.14-2.19.34a1.92,1.92,0,0,0-.37,1.85.88.88,0,0,0,.81.6l2.36-.12a5.75,5.75,0,0,1,.79.09,1.89,1.89,0,0,0,.68,0l.18,0a.45.45,0,0,1,.2,0,2.11,2.11,0,0,1,1,.56.65.65,0,0,1,.12.69,2.54,2.54,0,0,1-1.79,1.37l-.39.14c-.08,0-.15.09-.23.13a2.11,2.11,0,0,1-.58.3l-.48.14a4.86,4.86,0,0,0-1.24.47c-.24.16-.46.34-.69.52a7.1,7.1,0,0,1-1.29.87c-.68.35-1.8,1.06-1.54,2,.19.69,1.07.83,2.31,1l.26,0,1.78.48a8.67,8.67,0,0,1,1.48.32,10.09,10.09,0,0,0,1.7.36l1.73.21c.81.11,1.61.22,2.35.26.28,0,.57.05.86.08a2.73,2.73,0,0,0,1.62-.06,3.71,3.71,0,0,0,.78-1.51,1.6,1.6,0,0,1,.07-.52,2,2,0,0,0,0-.2l-.08-.16-.09-.19a1.41,1.41,0,0,0-1.33-.27,7.61,7.61,0,0,1-.9.11l-1.53-.14a8,8,0,0,1-3.11-.47.63.63,0,0,1-.36-.34.77.77,0,0,0-.1-.14.63.63,0,0,1-.1-.67,2.22,2.22,0,0,1,1.55-1.3,3.75,3.75,0,0,0,.43-.16,15.28,15.28,0,0,0,2.45-1.66c.12-.1.24-.22.37-.34a3,3,0,0,1,1.29-.85,2.94,2.94,0,0,1,1.06,0,2.53,2.53,0,0,0,.61,0,1.4,1.4,0,0,0,.77-.68A1.87,1.87,0,0,0,298.78,163.19Z" fill="#1F513F"></path><path d="M292.35,195.88a12.31,12.31,0,0,1,.87-1.34,3.86,3.86,0,0,0,1.09-2.62,6.49,6.49,0,0,0-1.31-2.78,6.24,6.24,0,0,1-.6-1.18,3.46,3.46,0,0,0-.6-1.05,5.71,5.71,0,0,0-1.28-.71,9.4,9.4,0,0,1-1.1-.55c-.29-.19-.55-.39-.81-.59a2.83,2.83,0,0,0-1.66-.8h-.08l-1.51.38-1,.51a7.5,7.5,0,0,0-4.63,3.7,6.91,6.91,0,0,0-.42,3.9,2.59,2.59,0,0,0,.43.79c.11.17.22.33.29.47,1.26,2.39,2,3.16,3.5,2.73a1.12,1.12,0,0,0,.6-.81,1.62,1.62,0,0,0-.18-1.49,3.87,3.87,0,0,0-.4-.34,3.57,3.57,0,0,1-.75-5.16,5.11,5.11,0,0,1,1.62-1.08l.16-.08a4.13,4.13,0,0,1,1.49-.51c.88-.13,2.15.55,3.94,2,.34.27,2.05,2,1.8,3.27a2.56,2.56,0,0,1-.83,1.58,2.35,2.35,0,0,0-.57.8,1,1,0,0,0,.26,1A1.85,1.85,0,0,0,292.35,195.88Z" fill="#1F513F"></path><path d="M191.17,11a1.85,1.85,0,0,0-.1-.62c0-.29-.1-.55-.13-.86-.23-2.66-1.55-4.27-3.49-5.84a5.07,5.07,0,0,0-2.64-1.45,2,2,0,0,0-.83.23,4.31,4.31,0,0,1-1.26.36,11,11,0,0,0-2.43.49,6,6,0,0,1-1.22.88c-.31.21-.62.39-.83.57a7.09,7.09,0,0,0-2,5.28c.05,2.51,3.05,4.71,4.63,5.51.41.18.88.36,1.29.57l.52.2a7.53,7.53,0,0,1,.8.65c.7.62,1.63,1.5,2.23,1.14a2.53,2.53,0,0,0,.51-.52,3.26,3.26,0,0,1,.55-.62c.44-.26.77-.44,1.11-.65l.54-.33A9.35,9.35,0,0,0,191.17,11Zm-3.62,1.29s0,0,0,0-.05.08-.11.16a1.71,1.71,0,0,1-1.34,1h-.23c-.7,0-1.06-.72-1.3-1.19a1.93,1.93,0,0,0-.31-.46,1.23,1.23,0,0,0-1.57-.34c-.08.13-.13.26-.21.39a4,4,0,0,0-.34.62.7.7,0,0,1-.41.36.91.91,0,0,1-.65,0h0a1.4,1.4,0,0,1-1.06-.65l-.11-.13c-1.27-1.32-.9-2.51-.59-3.59l.13-.47a3,3,0,0,1,.36-1,3.45,3.45,0,0,1,.62-.6,2,2,0,0,0,.36-.36.5.5,0,0,1,.31-.2c3-1.12,4.71-1.71,6.54,1.21A5.38,5.38,0,0,1,187.55,12.32Z" fill="#1F513F"></path><path d="M227.13,25a12.34,12.34,0,0,0,.66-1.18,13.22,13.22,0,0,1,.69-1.22c.05-.08.12-.16.18-.24a1.23,1.23,0,0,0,.18-.26,1.9,1.9,0,0,0-.43-1.87A1.37,1.37,0,0,0,227,20a2.19,2.19,0,0,1-.34.29,1.23,1.23,0,0,0-.23.22,2.52,2.52,0,0,0-.31.77c-.07.23-.14.45-.22.65a4.17,4.17,0,0,1-.51.81l-.2.27-.36.86a20,20,0,0,1-1.36,2.43l-.92,1.3-.75,1.06-.79,1.5a1.42,1.42,0,0,0-.27.43h0a1.77,1.77,0,0,0,.35,1.55,2,2,0,0,0,1.34.87,1.15,1.15,0,0,0,.4-.13l.06,0,.42-.84a47.86,47.86,0,0,1,3-5.3Z" fill="#1F513F"></path><path d="M206.36,25.14l.51,0a6.85,6.85,0,0,0,3.34-1.18,2.57,2.57,0,0,0,.5-.76,5.32,5.32,0,0,1,.37-.66l.7-.95c.29-.37.56-.74.83-1.13a4.71,4.71,0,0,0,.56-1.61c.07-.31.14-.61.23-.91s.17-.45.26-.67a6.82,6.82,0,0,0,.25-.68,7.91,7.91,0,0,1,.56-1.36,6.64,6.64,0,0,0,.47-1.09,1.88,1.88,0,0,0,.06-.46,4.49,4.49,0,0,1,.09-.61c.1-.45.15-.71,0-.93a2.49,2.49,0,0,0-1.21-.68l-.1,0c-1.09.45-1.36,1.36-1.67,2.41l-.12.38a18,18,0,0,1-2.87,6.16c-.08.1-.15.21-.23.33a3.9,3.9,0,0,1-.62.76,4.78,4.78,0,0,1-3.8.92c-1-.3-3.23-2.2-3.12-4.09a17.8,17.8,0,0,1,1.41-5c.25-.64.49-1.26.69-1.84a3.86,3.86,0,0,1,.3-.66,3,3,0,0,0,.24-.53,1.07,1.07,0,0,0-.16-.94,2.23,2.23,0,0,0-1.54-.77l-.51.1-.06,0a12.3,12.3,0,0,0-.66,2c-.11.4-.22.81-.35,1.2a20.06,20.06,0,0,1-1,2.35l-.53.95c0,.09,0,.38,0,.69a5,5,0,0,1,0,.87q-.08.41-.18.81a5.22,5.22,0,0,0-.22,1.38,4.93,4.93,0,0,0,1.58,2.95l.52.59c1.29,1.46,2.32,2.62,4.16,2.77A9.48,9.48,0,0,0,206.36,25.14Z" fill="#1F513F"></path><path d="M240.41,28.69a1.38,1.38,0,0,0-.28.23c-.23.31-.47.7-.7,1.06s-.49.78-.75,1.14c-.72,1-1.52,1.89-2.3,2.77-.41.49-.83,1-1.24,1.45a5,5,0,0,1-.52.51,2.19,2.19,0,0,0-.41.39,7.28,7.28,0,0,0-.42.6c-.13.23-.28.46-.44.69a5.3,5.3,0,0,1-.59.57c-.26.24-.54.47-.6.68a2.53,2.53,0,0,0,.34,2,1.5,1.5,0,0,0,.47.36l0,0h.29a1,1,0,0,0,.49-.1,4,4,0,0,0,1.08-1.4,4.31,4.31,0,0,1,2.41-2.38.7.7,0,0,1,.49.05,1.79,1.79,0,0,0,.41.13,3.7,3.7,0,0,1,.78.34,9.7,9.7,0,0,1,1,.83,3.71,3.71,0,0,0,1.52,1,4.41,4.41,0,0,0,3.13-1,4.81,4.81,0,0,0,2.07-2.43,7.17,7.17,0,0,0-.93-3s0,0,0-.08l-.54-1.4-.36-.54c-1.24-2.09-2.23-3.44-3.88-3A3,3,0,0,1,240.41,28.69Zm2.2,3.57a4.33,4.33,0,0,1,.93,3.59.63.63,0,0,1-.2.34,2.89,2.89,0,0,1-1,.57.71.71,0,0,1-.2,0,.75.75,0,0,1-.26-.05l-.24-.1a3.34,3.34,0,0,1-2.17-2.07.82.82,0,0,1,0-.49l.59-1.16a1.69,1.69,0,0,1,.41-.47l.24-.23a.63.63,0,0,1,.33-.29A1.53,1.53,0,0,1,242.61,32.26Z" fill="#1F513F"></path><path d="M77,21.74l.64,1.52c.44.74.92,1.65,1.4,2.57.38.73.77,1.46,1.15,2.15a8,8,0,0,1,.4.77c.48.95.8,1.54,1.45,1.67a1.93,1.93,0,0,0,1.76-.66.87.87,0,0,0,.08-1l-1.35-1.94a4.62,4.62,0,0,1-.34-.72,1.53,1.53,0,0,0-.32-.59.73.73,0,0,1-.19-.33,2.13,2.13,0,0,1,0-1.12.66.66,0,0,1,.52-.47,2.57,2.57,0,0,1,2.12.81,3.49,3.49,0,0,0,.32.25,1,1,0,0,0,.23.12,2.34,2.34,0,0,1,.56.33l.37.34a4.87,4.87,0,0,0,1,.81c.26.11.53.21.8.3a7.25,7.25,0,0,1,1.44.63c.65.4,1.85,1,2.55.23.49-.52.14-1.35-.42-2.46,0,0-.1-.2-.11-.24l-.54-1.76A9.48,9.48,0,0,1,90,21.52a9.14,9.14,0,0,0-.59-1.64c-.25-.52-.5-1.06-.75-1.61-.33-.73-.66-1.47-1-2.1-.14-.24-.26-.51-.39-.78-.27-.58-.55-1.19-.91-1.33a3.54,3.54,0,0,0-1.69.13,1.82,1.82,0,0,1-.48.22l-.19.08-.09.15-.11.18a1.44,1.44,0,0,0,.47,1.27c.16.19.35.4.57.71l.69,1.36a8,8,0,0,1,1.25,2.89.64.64,0,0,1-.1.5.56.56,0,0,0-.07.16.65.65,0,0,1-.5.43,2.22,2.22,0,0,1-1.93-.63,3.52,3.52,0,0,0-.37-.27A14.21,14.21,0,0,0,81.14,20l-.48-.13a3,3,0,0,1-1.41-.65,3,3,0,0,1-.59-.88,2.32,2.32,0,0,0-.31-.53,1.36,1.36,0,0,0-.91-.29h-.07a1.89,1.89,0,0,0-1.29.54,3.63,3.63,0,0,0-.28,2.18,2.89,2.89,0,0,0,.5.6,4.51,4.51,0,0,1,.66.76A.54.54,0,0,1,77,21.74Z" fill="#1F513F"></path><path d="M2.36,173.43c.14,2.25.65,3.06,1.07,3.08a.41.41,0,0,1,.19,0,7.21,7.21,0,0,0,1-.18A7.07,7.07,0,0,1,6,176.16a15.69,15.69,0,0,0,3.23-.41,23.82,23.82,0,0,1,3.54-.45,2,2,0,0,0,1.15-.26,3.38,3.38,0,0,1,1.31-.29h0a2.47,2.47,0,0,1,1.49.55,1.19,1.19,0,0,0,.61.29.65.65,0,0,1,.2,0,.32.32,0,0,0,.24,0,2.7,2.7,0,0,0,1-1.21,5.62,5.62,0,0,0,.14-1.89c0-.25,0-.5,0-.76l-.65-2.83,0-1.3c0-.62,0-1.22,0-1.82a2.05,2.05,0,0,0-1.42-1.72.64.64,0,0,1-.24,0,.4.4,0,0,0-.32,0,1.48,1.48,0,0,0-.62.7,7,7,0,0,0-.17,2c0,.24,0,.47,0,.69a4.29,4.29,0,0,0,.31,1.33,4.22,4.22,0,0,1,.33,2A.6.6,0,0,1,16,171l-.31.58a.67.67,0,0,1-.35.31,7.46,7.46,0,0,1-1.41.39.6.6,0,0,1-.47-.11l-.16-.06a.64.64,0,0,1-.38-.34,8.06,8.06,0,0,1-.6-2.54c-.11-.94-.22-1.83-.65-2.12a1.49,1.49,0,0,0-1.15-.09l-.18.12a3,3,0,0,0-.52,1.61,5.44,5.44,0,0,0,.11,1.43,4.85,4.85,0,0,1,0,2.21.63.63,0,0,1-.33.4,8.37,8.37,0,0,1-3.91.53,1.14,1.14,0,0,1-.47-.22.71.71,0,0,1-.4-.48,16.23,16.23,0,0,1-.19-2.36c-.06-1.53-.12-3.28-.83-3.86a1.25,1.25,0,0,0-.9-.21,3.49,3.49,0,0,1-.41.33,1,1,0,0,0-.49.62,12.12,12.12,0,0,0,.11,4.29C2.23,172.14,2.32,172.83,2.36,173.43Z" fill="#1F513F"></path><path d="M3.68,122c-.05.08-.13.23-.24.39s-.2.33-.31.51-.25.39-.38.57a7.08,7.08,0,0,0-.8,1.4,3.38,3.38,0,0,0-.16.7,4.88,4.88,0,0,1-.21.9c-.05.16-.13.31-.18.47a3.31,3.31,0,0,0-.23.72,5.35,5.35,0,0,0,.72,3,2.72,2.72,0,0,0,1.68.87,5.69,5.69,0,0,0,.86-.1,6.38,6.38,0,0,1,1-.1h.31a12,12,0,0,1,1.81.46l.8.24.91.18a8,8,0,0,1,1.47.33l.6.24a12.08,12.08,0,0,0,2.14.62,2.4,2.4,0,0,0,2.12-.88,1.23,1.23,0,0,0,.06-1.35,1.61,1.61,0,0,0-1.27-.85,5,5,0,0,0-.67,0,2,2,0,0,1-1.94-.62,1.46,1.46,0,0,1-.47-1.06,3,3,0,0,1,1.27-1.94l.13-.1a7.06,7.06,0,0,1,1.68-1.4,15.39,15.39,0,0,1,1.52-.78c1.63-.72,2.69-1.29,2.75-2.32a1.1,1.1,0,0,0-.57-.88,1.41,1.41,0,0,0-1.35-.16c-.15.1-.36.23-.57.39s-.38.28-.59.39a6.18,6.18,0,0,1-.91.41,3,3,0,0,0-.7.31,1.41,1.41,0,0,0-.38.29,4,4,0,0,1-1.61.77.67.67,0,0,1-.51-.13,7.83,7.83,0,0,1-1.19-1.11,6.56,6.56,0,0,0-.78-.8,5.56,5.56,0,0,0-4.16-.67,6.15,6.15,0,0,1-.88.59A2.58,2.58,0,0,0,3.68,122Zm1.45,2.27a.6.6,0,0,1,.38-.25,2.91,2.91,0,0,1,3.34,1.08,3.06,3.06,0,0,1-.26,3.52.73.73,0,0,1-.41.26,5.24,5.24,0,0,1-.57,0,9.58,9.58,0,0,1-3.18-.77.57.57,0,0,1-.39-.47,3.58,3.58,0,0,1,.88-3.08Z" fill="#1F513F"></path><path d="M1,150.22a3.22,3.22,0,0,0,.33,1.16h0a5.26,5.26,0,0,0,1.09,1,9.2,9.2,0,0,1,.94.8c.24.24.45.51.66.76.48.59.86,1.06,1.5,1.18l1.55,0,1.1-.26a7.47,7.47,0,0,0,5.36-2.52,6.81,6.81,0,0,0,1.32-3.7,2.63,2.63,0,0,0-.23-.86,5.56,5.56,0,0,1-.18-.53c-.68-2.61-1.23-3.54-2.77-3.47a1.13,1.13,0,0,0-.77.64,1.68,1.68,0,0,0-.17,1.51,3.68,3.68,0,0,0,.31.41,4.15,4.15,0,0,1,.42.57,3.39,3.39,0,0,1-.89,4.63,5.17,5.17,0,0,1-1.83.67l-.16,0a4,4,0,0,1-1.57.15c-1.19-.2-2.43-1.62-3.38-2.83-.22-.29-1.53-2.41-1-3.61a2.53,2.53,0,0,1,1.18-1.34,2.28,2.28,0,0,0,.73-.65,1,1,0,0,0,0-1,1.84,1.84,0,0,0-1.65-.36,10.72,10.72,0,0,1-1.16,1.09A3.92,3.92,0,0,0,0,145.93a6.43,6.43,0,0,0,.63,3A6.63,6.63,0,0,1,1,150.22Z" fill="#1F513F"></path><path d="M29.44,83a1.68,1.68,0,0,0,1.24,0,2.82,2.82,0,0,0,1-2.41,1.34,1.34,0,0,0-.88-1.24,1.48,1.48,0,0,0-.39,0,10.2,10.2,0,0,0-1.5.18,8.23,8.23,0,0,1-1.68.18l-2.18-.15c-1.08-.08-2.19-.19-3.36-.21l-3.15.44A2,2,0,0,1,18,80a.56.56,0,0,0-.26.13A3.65,3.65,0,0,0,16.45,82a2.77,2.77,0,0,0,.73,1.65,8.26,8.26,0,0,0,1.19.91c.39.28.8.57,1.16.88.88.8,1.76,1.7,2.59,2.56l.8.85a11.76,11.76,0,0,1,1.27,1.63c.75,1.06,1.78,2.51,2.56,2.61a1.07,1.07,0,0,0,.49-.13l.1,0a2.31,2.31,0,0,1,.36-.39,1.73,1.73,0,0,0,.36-.49,3.39,3.39,0,0,0,.19-.65c.18-1.16-.31-1.53-1-2.1A4.31,4.31,0,0,1,25.94,88a1.84,1.84,0,0,1,.18-1.86,1.34,1.34,0,0,1,.11-.21,5.19,5.19,0,0,0,.21-.9,4,4,0,0,1,.49-1.61,1.35,1.35,0,0,1,.36-.33.72.72,0,0,1,.44-.26A4.36,4.36,0,0,1,29.44,83Zm-4.89.82a.77.77,0,0,1-.31.55l0,0a.67.67,0,0,1-.46.29h-.26a1.46,1.46,0,0,1-.73-.16l-.15,0a.84.84,0,0,1-.42-.41.7.7,0,0,1-.23-.42,1.32,1.32,0,0,1,.86-1.47,1.48,1.48,0,0,1,.75,0,1.23,1.23,0,0,1,.59.29.67.67,0,0,1,.34.46A2.15,2.15,0,0,1,24.55,83.77Z" fill="#1F513F"></path><path d="M10.18,95.89h-.09a.78.78,0,0,0-.26,0l-.33.33a2.38,2.38,0,0,0-.64.86,8.92,8.92,0,0,0-.29,2.42,14.27,14.27,0,0,1-.18,2.1,10.92,10.92,0,0,1-.59,1.86,10.56,10.56,0,0,0-.51,1.64,4,4,0,0,0,.32,2.39c.26.37,1,.52,1.66.66a6.91,6.91,0,0,1,1.32.35c1,.44,2,1,2.94,1.46s1.73.9,2.61,1.3a8.81,8.81,0,0,1,1.08.61,4,4,0,0,0,1.6.73A1.46,1.46,0,0,0,20,112.3a3.28,3.28,0,0,0,.81-2.32,1.66,1.66,0,0,0-.15-.58,2.57,2.57,0,0,1-.23-1.2,8,8,0,0,1,.88-2.58,9.62,9.62,0,0,0,.63-1.56,2.07,2.07,0,0,0-.09-1.59,1.22,1.22,0,0,0-.35-.24l-.23-.12c-1.38.18-1.57.9-1.92,2.16-.08.3-.17.62-.28.94-.17.51-.36,1-.54,1.56l-.35,1a.62.62,0,0,1-.31.36,1.71,1.71,0,0,1-2.32-.42,1.92,1.92,0,0,1-.13-2,2.19,2.19,0,0,0,.11-.34l0-.28c.19-1,.69-3.59-.07-4.31a.8.8,0,0,0-.51-.13,1.07,1.07,0,0,0-.71.28,4.15,4.15,0,0,0-.67,2.16,6,6,0,0,1-.68,2.42.65.65,0,0,1-.45.3,2.12,2.12,0,0,1-1.88-.62l-.21-.17a.6.6,0,0,1-.24-.4,2.82,2.82,0,0,1,.15-1.56,4,4,0,0,0,.12-.41,21,21,0,0,0,.3-3.52c0-.4,0-.82.05-1.25a3.61,3.61,0,0,0-.24-1.63Z" fill="#1F513F"></path><path d="M50.91,49.69a13.42,13.42,0,0,1-1.69-1.22c-1-.85-1.87-1.66-2.68-2.49l-.6-.63c-1-1.05-1.82-2-3.29-1.73h0a.56.56,0,0,1-.25.17c-.17.08-.19.15-.2.2-.11.54.7,1.78,1.3,2.4,1.44,1.48,2.6,2.59,3.65,3.49a10.4,10.4,0,0,0,1.12.82,14,14,0,0,1,1.23.91,9.21,9.21,0,0,1,.69.7c.49.53,1.05,1.14,1.55,1.17a.54.54,0,0,1,.22,0c.3.13.74-.16,1.37-.82a2.56,2.56,0,0,0-.8-1.87A10.85,10.85,0,0,0,50.91,49.69Z" fill="#1F513F"></path><path d="M32.05,65.53c.56.5,1.16,1,1.77,1.45s1.22,1,1.78,1.46c.29.26.58.55.86.84a5.9,5.9,0,0,0,1.89,1.5,2.76,2.76,0,0,0,2.19-.53,1,1,0,0,0,.29-.71,1.52,1.52,0,0,0-.45-1.12,3.89,3.89,0,0,0-1-.51,6.22,6.22,0,0,1-1.29-.65,5.89,5.89,0,0,1-.89-.82c-.15-.16-.3-.31-.46-.46-.45-.41-.92-.81-1.4-1.21s-1.25-1.06-1.86-1.63a4.63,4.63,0,0,0-.58-.44,4.05,4.05,0,0,1-1.23-1.14,2,2,0,0,1,.64-2.42l.24-.26a33.41,33.41,0,0,1,2.53-3.24l.25-.27a3.23,3.23,0,0,0,.72-1,1.75,1.75,0,0,0-.18-.6c-.45-.93-.45-.93-1-1l-.47,0A2.93,2.93,0,0,1,34,53a1.38,1.38,0,0,0-.26.15c-.57.55-1.18,1.26-1.71,1.87a3,3,0,0,0-.33.57,3.43,3.43,0,0,1-.51.85c-.7.82-1.34,1.71-2,2.57s-1.26,1.75-2,2.59a8.85,8.85,0,0,0-.69,1,8.93,8.93,0,0,1-.84,1.23l-.45.48a4.28,4.28,0,0,0-1,1.25,1.55,1.55,0,0,0,.69,1.7c1.24.48,2.38-1,2.95-1.88a2.36,2.36,0,0,0,.13-.23c.28-.51.71-1.34,1.66-1.28h0c.82,0,1.42.72,1.86,1.25C31.78,65.25,31.92,65.41,32.05,65.53Z" fill="#1F513F"></path><path d="M25.89,225c.57.06.75-.13.82-.2a1.52,1.52,0,0,0,.26-1.05l0-.09a2.27,2.27,0,0,0-1.15-1.9,3.81,3.81,0,0,1-.54-.17,1.45,1.45,0,0,0-.35-.12,1.43,1.43,0,0,0-.34.06l-.22.06a2,2,0,0,0-.27,2.15A3.09,3.09,0,0,0,25.89,225Z" fill="#1F513F"></path><path d="M8.77,194.9l.11.65a5,5,0,0,0,.95,2.74c.55.46,1.84-.18,2.69-.62l.16-.08c.33-.1.54-.18.77-.23l.29-.11a18.12,18.12,0,0,1,3.62-1c.49-.08,1-.18,1.42-.28l2.85-.78c.28-.08.54-.13.8-.18A6.15,6.15,0,0,0,25,194.2a2.39,2.39,0,0,0,.54-1.68,1.38,1.38,0,0,0-.49-1.06,2.75,2.75,0,0,0-2.3.29,2.79,2.79,0,0,1-1.68.59,1.37,1.37,0,0,1-.6-.05.94.94,0,0,1-.57-.41c-.7-1.66.34-2.69,1-3.37.1-.13.21-.23.31-.36,1.09-1.19,1.94-2.14,1.45-4a1.39,1.39,0,0,0-1.16-.33,4,4,0,0,1-.39.23c-.11.05-.21.1-.23.15a8.32,8.32,0,0,0-.81,1,6.17,6.17,0,0,1-.69,1,6.3,6.3,0,0,1-.62.65,5,5,0,0,0-.7.75.55.55,0,0,1-.39.26,3.58,3.58,0,0,1-2.38-.34,5.82,5.82,0,0,0-.85-.31,3.81,3.81,0,0,0-1.19.08,10.65,10.65,0,0,1-1.35.1,3.11,3.11,0,0,0-1.06.18c-2,1-2.4,3.08-2.43,5.85a2.72,2.72,0,0,0,.18.9A4.83,4.83,0,0,1,8.77,194.9Zm2.67-3.77a1.36,1.36,0,0,1,.41-.29.42.42,0,0,1,.15-.1.69.69,0,0,1,.34-.21c2.35-.52,3.08-.08,4.35.93a.69.69,0,0,1,.25.42,1.85,1.85,0,0,1-.1,1.06,1,1,0,0,1-.36.46,24.87,24.87,0,0,1-4.24,1.32h-.13a.63.63,0,0,1-.36-.1,2,2,0,0,1-.88-1.48A2.59,2.59,0,0,1,11.44,191.13Z" fill="#1F513F"></path><path d="M159.91,301.89a1,1,0,0,1,.13-.18,2.18,2.18,0,0,0-.67-1.36c-.15-.18-.28-.34-.43-.55s-.51-.65-.76-1a18.92,18.92,0,0,1-1.89-2.78,3.2,3.2,0,0,1,.21-2.92,2.84,2.84,0,0,0,.4-1.6,3.41,3.41,0,0,0-2.43-2.91l-.52-.25a4.44,4.44,0,0,0-2.18-.58,6.85,6.85,0,0,1-1.4.18,7.71,7.71,0,0,0-1.09.11A2.92,2.92,0,0,0,148,289.3a5.77,5.77,0,0,1-.37.54,5.61,5.61,0,0,1-.42.43,1.08,1.08,0,0,0-.35.38,3.37,3.37,0,0,0,.23,1.69c.07.21.15.41.2.62a15.79,15.79,0,0,1,.08,3.88c-.09,1.76-.17,3.75.38,4.54a1.89,1.89,0,0,0,1.64.6,1.15,1.15,0,0,0,1-.61,1.57,1.57,0,0,0,0-.9,4.29,4.29,0,0,1-.13-1,.51.51,0,0,1,.19-.43,4.84,4.84,0,0,1,3.25-1.31h.08a.57.57,0,0,1,.41.19c.51.52.94,1.05,1.37,1.57a10.27,10.27,0,0,0,2.39,2.4l.23.16c.46.35.84.59,1.23.44A2.47,2.47,0,0,0,159.91,301.89Zm-8-6.59a.58.58,0,0,1-.46.2,1.52,1.52,0,0,1-.85-.2,1.16,1.16,0,0,1-.61-.86,16.58,16.58,0,0,1-.17-3.22,1.3,1.3,0,0,1,.24-.38.9.9,0,0,1,.5-.46,1.18,1.18,0,0,1,.28,0c.13,0,.34-.07.42-.1a.87.87,0,0,1,.41-.07,2.1,2.1,0,0,1,2.08,1C154.31,292.63,152.47,294.69,151.88,295.3Z" fill="#1F513F"></path><path d="M126.61,300.33a2.67,2.67,0,0,0,.86,0,5.62,5.62,0,0,1,.58,0,2.15,2.15,0,0,1,.62.08c.38.11.78.26,1.21.43,1.2.47,2.56,1,3.82.48a1.76,1.76,0,0,0,.68-.56l.06-.07a1.52,1.52,0,0,0-1.33-1.75l-1.16-.07a15.71,15.71,0,0,1-1.66-.51c-.3-.11-.6-.22-.89-.31a1.87,1.87,0,0,0-.4-.07,2.06,2.06,0,0,1-.91-.27,1.23,1.23,0,0,1-.62-.55,1,1,0,0,1-.22-.54,1.89,1.89,0,0,1,.4-1.22,1,1,0,0,1,.49-.39,4,4,0,0,1,1.78.16l.32.08a4.45,4.45,0,0,0,1.7-.15l.22-.05,1.45-.08a3.86,3.86,0,0,0,1.79-1,2.08,2.08,0,0,0-.15-.63c-.42-1.13-1.05-1.11-2.78-.76a5.06,5.06,0,0,1-3.59-.16.64.64,0,0,1-.3-.4,3.1,3.1,0,0,1,.14-2.25c.39-.87,1.3-.81,1.89-.78a2.69,2.69,0,0,0,.81,0c.45-.09.91-.15,1.38-.21a10.41,10.41,0,0,0,1.77-.32,6,6,0,0,0,1.44-.69,1.32,1.32,0,0,0-.16-1.06c-.39-.48-1.56-.55-2.56-.53a2,2,0,0,1-.67,0h-.25a11.69,11.69,0,0,1-1.75.21h-1.23a4.33,4.33,0,0,1-.61.13c-.75.13-1.41.24-1.71.65a1.41,1.41,0,0,0-.1.21,1.68,1.68,0,0,1-.26.49,2.81,2.81,0,0,1-.4.45,2.24,2.24,0,0,0-.34.39l-.15,2.36c-.24,1-.44,1.84-.63,2.7-.24,1.1-.48,2.2-.78,3.23a2.59,2.59,0,0,0,.12,1.61A3.72,3.72,0,0,0,126.61,300.33Z" fill="#1F513F"></path><path d="M108.38,292.67c.25.13.53.27.66.32a3.83,3.83,0,0,0,1.5-.15s.16,0,.16,0c1.59-.36,2.83-.62,3.55-1.59,1.83-2.47.8-5.67-.66-7.67a5,5,0,0,0-2.1-1.17,9.71,9.71,0,0,0-3-.65,3.77,3.77,0,0,1-1.09.36,2.19,2.19,0,0,0-1,.42,5.48,5.48,0,0,0-.71,2.06,10.16,10.16,0,0,1-.34,1.37,4.55,4.55,0,0,1-.27.64c-.11.25-.21.51-.3.77-.16.46-.27.87-.41,1.31a15.08,15.08,0,0,1-.63,1.9c-.13.31-.3.64-.48,1a6.39,6.39,0,0,0-.65,1.36c-.22.8.92,1.83,1.46,2a1.22,1.22,0,0,0,1.47-.91c0-.1,0-.23.06-.36a1.4,1.4,0,0,1,.85-1.4A2.64,2.64,0,0,1,108.38,292.67Zm-.5-5.49c.09-.18.17-.36.25-.54s0-.23.05-.36a2.6,2.6,0,0,1,.25-.85,1.79,1.79,0,0,1,.4-.48l.16-.16a.79.79,0,0,1,.42-.25l.2,0a.6.6,0,0,1,.37,0,2.9,2.9,0,0,1,1.51,5.15,3.48,3.48,0,0,1-2.24.78,2.94,2.94,0,0,1-1.55-.47.54.54,0,0,1-.27-.39A3.35,3.35,0,0,1,107.88,287.18Z" fill="#1F513F"></path><path d="M175.26,297c.13-.23.27-.44.4-.64a.65.65,0,0,1,.39-.25l.6-.15a19.79,19.79,0,0,0,3.31-1l.2-.08a2,2,0,0,1,1.89-.06,2.13,2.13,0,0,1,1,1.13,1.83,1.83,0,0,0,.18.34c.48.81.88,1.43,1.73,1.66a1,1,0,0,0,1.09-.37,1.1,1.1,0,0,0,.28-1.16,3.52,3.52,0,0,0-.58-.86l-.43-.58c-.12-.24-.25-.44-.35-.65a4.68,4.68,0,0,0-.37-.66l-.81-.81-1.52-2.15c-.47-.66-.93-1.31-1.41-2a5.19,5.19,0,0,0-.78-.87,8.71,8.71,0,0,1-.84-.89l-.15-.24c-.81-1.1-1.64-2.25-3.19-2.31a1.45,1.45,0,0,1-.62.12l-.29,0a3.5,3.5,0,0,0-1.54.88,2.33,2.33,0,0,0-.11,1.42,5,5,0,0,1-.05,1.76c-.06.39-.12.8-.16,1.24s-.09.93-.18,1.36l0,.94c-.48,2.29-.66,5.16,0,6.57C173.93,298.89,174.52,298.16,175.26,297Zm.77-8a.8.8,0,0,1,.32-.31.72.72,0,0,1,.54-.19,3.12,3.12,0,0,1,2.07,1.82,5.68,5.68,0,0,0,.5.73.71.71,0,0,1,.17.45,1.73,1.73,0,0,1-.14.85c-.27.56-1.26.85-1.68,1a5,5,0,0,1-1,.11,1.4,1.4,0,0,1-.82-.25c-.13-.11-.41-.37-.43-.5C175.48,292.22,175.45,289.66,176,289Z" fill="#1F513F"></path><path d="M253.83,259.21a6.83,6.83,0,0,1,.72-.86,13.38,13.38,0,0,1,1.24-1.05c1.23-1,2.5-2,2.51-3.58l0,0c-.48-.51-.83-.83-1.35-.69a2,2,0,0,0-.92.76l-.27.31-1.84,1.82a5.48,5.48,0,0,1-.53.37,3,3,0,0,0-.49.35.49.49,0,0,1-.5.2,1.36,1.36,0,0,1-.62-.11.72.72,0,0,1-.55-.51c-.17-1.08.71-2.08,1.48-3a9,9,0,0,0,.68-.85l.11-.18q.36-.55.3-.66a.4.4,0,0,1-.1-.18,1,1,0,0,0-.55-.49,1.19,1.19,0,0,0-.92-.06,8.39,8.39,0,0,0-2,1.77l-.59.62a.62.62,0,0,1-.51.19,2.72,2.72,0,0,1-2.06-1.61,3.33,3.33,0,0,0-.41-.6.6.6,0,0,1-.16-.44v-.36a.64.64,0,0,1,.21-.47,21.69,21.69,0,0,0,5.22-6.15,1.8,1.8,0,0,0,.11-1.7,1.06,1.06,0,0,0-.85-.47l-.37.27a2.37,2.37,0,0,0-.55.45c-.42.56-.81,1.14-1.2,1.72s-.89,1.32-1.38,1.94a6.33,6.33,0,0,1-1.59,1.34,5.49,5.49,0,0,0-1.32,1.11,7,7,0,0,0-.62,1.05,7.7,7.7,0,0,1-.89,1.41,3.31,3.31,0,0,0,1.48,2.21l.4.34a4.94,4.94,0,0,1,.74,1,5,5,0,0,0,.37.53,2.8,2.8,0,0,0,.5.44,3.83,3.83,0,0,1,.79.73c.56.76,1.17,1.51,1.93,2.39a5.65,5.65,0,0,1,.62.94c.33.59.55.95,1,1.07a3.11,3.11,0,0,0,1.83-.27A3.87,3.87,0,0,0,253.83,259.21Z" fill="#1F513F"></path><path d="M201.67,277.18h0l-2.9.87c-.32.13-.73.24-1.15.36a10.43,10.43,0,0,0-1.2.38l-.89.36a24.62,24.62,0,0,1-2.58,1c-.38.11-.78.18-1.16.26-1.07.2-1.68.34-1.9.94a.8.8,0,0,1-.08.16c-.16.22.1.68.28.88.92,1,1.63.76,3.28.17.63-.22,1.59-.56,2.26-.1s.9,1.29,1.08,2.05a5.21,5.21,0,0,0,.16.63c.26.73.51,1.54.75,2.35s.5,1.67.77,2.4c.07.19.13.39.19.59a2.14,2.14,0,0,0,.44,1,2.17,2.17,0,0,0,1.71.35,1.14,1.14,0,0,0,.4-.34l.2-.21a2.88,2.88,0,0,0-.46-1.59,7.25,7.25,0,0,1-.42-.93,18.51,18.51,0,0,1-.65-2.39,19.85,19.85,0,0,0-.53-2l-.11-.31c-.46-1.2-.81-2.26-.39-2.91s1.31-1,2.09-1.19a4.89,4.89,0,0,0,.72-.2,4,4,0,0,0,1.43-1,1.79,1.79,0,0,0,.09-.19,1.82,1.82,0,0,1,.13-.3,1.08,1.08,0,0,0-.31-.62A1.84,1.84,0,0,0,201.67,277.18Z" fill="#1F513F"></path><path d="M214.76,276.05a19.18,19.18,0,0,1,1.44,2.73c.2.45.41.89.62,1.32.14.27.27.6.41.95a4.2,4.2,0,0,0,.87,1.6,2.16,2.16,0,0,0,2,.21c.73-.48.51-1.21-.27-2.67l-.21-.39c-.23-.46-.45-.91-.67-1.37a28.91,28.91,0,0,0-2.15-3.89,4.35,4.35,0,0,0-.49-.57,6.36,6.36,0,0,1-.55-.63c-.63-.86-1-1.38-2-1.45a3.17,3.17,0,0,1-.5.16,1.07,1.07,0,0,0-.28.08,1,1,0,0,0-.19.26l-.16.26a3.64,3.64,0,0,0,1.29,2.34A7.85,7.85,0,0,1,214.76,276.05Z" fill="#1F513F"></path><path d="M239.49,271a5.18,5.18,0,0,1-.39-.73,4.75,4.75,0,0,1-.29-1.12,4,4,0,0,0-.15-.72c-.21-.73-.42-1.51-.63-2.3-.26-1-.52-1.95-.81-2.87a7.64,7.64,0,0,1-.25-1.53,4,4,0,0,0-.36-1.64,2,2,0,0,0-1.58-.71l-.15,0-.32.23a1.22,1.22,0,0,0-.39.33c-.67,1.1,0,3,.37,4,.73,2,.9,2.91.61,3.45a.68.68,0,0,1-.16.29.73.73,0,0,1-.46.25h0a2.8,2.8,0,0,1-2-1,3.09,3.09,0,0,0-.43-.37,9.73,9.73,0,0,0-1.55-.88c-.46-.24-.92-.47-1.37-.75l-.48-.32a4.6,4.6,0,0,0-1.07-.62c-.86-.28-1.94.91-2.12,1.37a1,1,0,0,0,0,.49V266a3,3,0,0,1,.17.28,1.31,1.31,0,0,0,.15.23,1.53,1.53,0,0,0,.61.18,6.62,6.62,0,0,1,.71.17,12.26,12.26,0,0,1,2.53,1.22c1.26.8,2.49,1.73,3.67,2.62l1.51,1.13c.18.13.35.28.52.43a4.34,4.34,0,0,0,.67.52c1,.53,2.9.86,3.37.27a1.59,1.59,0,0,0,.34-1.47A3,3,0,0,0,239.49,271Z" fill="#1F513F"></path><path d="M53.83,248.17a3.61,3.61,0,0,0,.07,1,2.2,2.2,0,0,0,.86,1.42,1,1,0,0,0,.87,0,1.48,1.48,0,0,0,.51-.45,8.66,8.66,0,0,0-.1-3.82c-1.25-2.52-3-3.27-7.54-3.25l-1.72.33a13.7,13.7,0,0,0-4.35,3.85,4.9,4.9,0,0,0-.52,1.54c-.06.27-.12.54-.2.83s-.12.5-.17.77l-.12.55a4.69,4.69,0,0,0,0,1.71,4.53,4.53,0,0,1,.07.79,1.72,1.72,0,0,0,0,.48c.63,2,2,2.78,3.69,3.83l.75.46c.18.11.35.24.53.36a5.51,5.51,0,0,0,1.62.86,1.62,1.62,0,0,0,1.62-.48l.06-.51a2.34,2.34,0,0,0,0-1.09c-.22-.39-.54-.52-1.19-.74-.24-.08-.49-.17-.76-.28-.71-.31-3.67-1.88-4-3.37a4.61,4.61,0,0,1,.27-2.35c.08-.26.11-.39.14-.52a2.84,2.84,0,0,1,.33-.95,10.78,10.78,0,0,1,4.27-3.15,8.16,8.16,0,0,1,3.95.27A1.75,1.75,0,0,1,53.83,248.17Z" fill="#1F513F"></path><path d="M73.05,263a3.33,3.33,0,0,0-.54-.69,4.89,4.89,0,0,1-.55-.67,3.46,3.46,0,0,1-.4-.9c-.12-.36-.2-.56-.4-.69a11.11,11.11,0,0,0-3.19-.6,5.9,5.9,0,0,1-1,.23,5.07,5.07,0,0,0-.81.18,16.06,16.06,0,0,0-4.52,3.08,12.17,12.17,0,0,0-2.12,4.63,2.64,2.64,0,0,0,.35,1.67l.09.2a5.61,5.61,0,0,0,3.61,3.26A6.92,6.92,0,0,0,72,270l.32-.39a4.81,4.81,0,0,0,.7-1A7.61,7.61,0,0,0,73.05,263Zm-2.74,4.45-.14.2h0a5.37,5.37,0,0,1-4.56,2.64,7,7,0,0,1-1.85-.31,3,3,0,0,1-1-.54l-.19-.14a.61.61,0,0,1-.25-.38c-.62-2.68,2.53-5.07,3.91-6a2.63,2.63,0,0,1,.63-.25,1.88,1.88,0,0,0,.35-.13.64.64,0,0,1,.45-.12,3.57,3.57,0,0,1,2.4,1,6.19,6.19,0,0,0,.62.45.6.6,0,0,1,.29.4A3.16,3.16,0,0,1,70.31,267.41Z" fill="#1F513F"></path><path d="M91.32,287.62c.68-.22,1.08-.89,1.53-1.6l.11-.18a11.29,11.29,0,0,0,1.4-8.72c-.85-2.71-3-4.14-6.31-4.2H87.9a3,3,0,0,1-.83.27,4.14,4.14,0,0,0-.55.2,14,14,0,0,0-3.93,3.78l-.47.61a6.68,6.68,0,0,0-1.28,2c-.71,1.85.47,3.84,1.18,4.65,1.62,1.87,4.08,4.27,7.28,3.55.26-.07.54-.09.85-.14A8.66,8.66,0,0,0,91.32,287.62ZM88,285.05a6,6,0,0,1-3.21-1.28l-.23-.19a2.25,2.25,0,0,1-1-1.18c-.65-1.1.49-2.42.86-2.8a10.23,10.23,0,0,0,.74-.94,6.07,6.07,0,0,1,1.35-1.53,10.59,10.59,0,0,1,1.46-1,1.8,1.8,0,0,1,.42-.15,1,1,0,0,1,.47-.15c2.38-.08,2.9,1.19,3.31,2.78a4.53,4.53,0,0,1,0,2.43,11.48,11.48,0,0,1-1,1.95l-.14.23a1.39,1.39,0,0,0-.18.31,2.06,2.06,0,0,1-.56.76A3.63,3.63,0,0,1,88,285.05Z" fill="#1F513F"></path><path d="M102.68,21.06c0,.21-.06.39-.11.6a3.82,3.82,0,0,0,0,1.55l.07.07a1.92,1.92,0,0,0,.73.31,5.59,5.59,0,0,1,.77.24,2.12,2.12,0,0,0,1.68-1.63,3.63,3.63,0,0,0-.12-.78,2.5,2.5,0,0,1,0-1.6,1.41,1.41,0,0,1,1-1,1.92,1.92,0,0,0,.31-.11l.54-.31a18.69,18.69,0,0,0,1.63-1,1.72,1.72,0,0,1,1.19-.44c1.14,0,1.53.88,1.81,1.52l.24.47a3.89,3.89,0,0,0,2.06,1.57,1,1,0,0,0,.86-.15,2.73,2.73,0,0,0,.51-.85c.42-.94.19-1.17-.49-1.92l-.23-.23v0a9.78,9.78,0,0,1-1-1.34l-.52-.7a10.24,10.24,0,0,1-.93-1.29c-.13-.24-.23-.47-.31-.65A5.27,5.27,0,0,0,112,13c-.16-.11-.29-.24-.42-.34-.39-.41-.72-.83-1.06-1.24a11.41,11.41,0,0,0-1.16-1.32c-.62-.54-1.35-1-2-1.53l-1-.69a6.38,6.38,0,0,1-.52-.42,3,3,0,0,0-2.43-.93,1.69,1.69,0,0,1-.39.16.67.67,0,0,0-.18.07,2.35,2.35,0,0,0-.93,1A3.32,3.32,0,0,0,102,8.8a6.6,6.6,0,0,1,.16,1.3,12.7,12.7,0,0,0,.18,1.91c.07.72.18,1.5.18,2.2,0,.31.1.7.15,1.08s.13.73.19,1.09v1.34C102.78,18.81,102.78,20,102.68,21.06Zm2.87-8.84a.58.58,0,0,1,.44-.39l.41-.11a.65.65,0,0,1,.57.13c.1.08.26.18.39.29A3.69,3.69,0,0,1,109,14.31a.63.63,0,0,1-.05.47,4.62,4.62,0,0,0-.26.46.58.58,0,0,1-.29.29,3.69,3.69,0,0,1-1.65.51,2,2,0,0,1-.52-.07.56.56,0,0,1-.41-.32A4.12,4.12,0,0,1,105.55,12.22Z" fill="#1F513F"></path><path d="M70.87,33.09c-.24-.37-.44-.75-.68-1.14a4.63,4.63,0,0,0-1.88-2.33c-1.3-.57-3.08-.57-5.56,0a3.08,3.08,0,0,1-.42.18L62.1,30c-.18.18-.34.39-.52.57a.82.82,0,0,1-.33.15,3.56,3.56,0,0,1-1.43-.05,4.87,4.87,0,0,0-.72-.1.9.9,0,0,0-.67.26,7.21,7.21,0,0,0-.91,8.22,9.71,9.71,0,0,0,3,3.21,2.82,2.82,0,0,0,.87.15l.65.08.23,0a5.89,5.89,0,0,0,3.42-.08,31.33,31.33,0,0,0,3.39-2.19l.49-.31c.67-.42,1.06-.68,1.24-1.14a14.64,14.64,0,0,0,.82-4A3.2,3.2,0,0,0,71,33.27Zm-2.56,3.25-.06.29A2.37,2.37,0,0,1,67.74,38a2.14,2.14,0,0,1-.7.49,1.65,1.65,0,0,0-.31.18,5.42,5.42,0,0,1-3.11,1.11,3.25,3.25,0,0,1-.75-.08,4.34,4.34,0,0,1-2.81-2.12,4.55,4.55,0,0,1-.81-2.48,7.1,7.1,0,0,1,1.3-3.21l.1-.12a.67.67,0,0,1,.41-.32l.42-.07a.61.61,0,0,1,.49.13,4,4,0,0,0,1.11.57,5.4,5.4,0,0,0,1.63,0,2.92,2.92,0,0,1,3,1.26,3.06,3.06,0,0,1,.78,2A3.21,3.21,0,0,1,68.31,36.34Z" fill="#1F513F"></path><path d="M83.34,156.89H51.93c-1.35,0-1.8-.84-1.8-2.3,0-1.24.51-1.8,1.8-2.13l3.2-.73V122l-3.2-.73c-1.29-.34-1.8-.9-1.8-2.13,0-1.46.45-2.3,1.8-2.3H82.5c1.06,0,1.57.45,1.62,1.46l.51,7.29a1.73,1.73,0,0,1-2,2A2.45,2.45,0,0,1,80.14,126c-1.18-2.58-3.08-4.66-8-4.66H64.77V134h4.77c3.53,0,4.49-1,4.94-4.1.22-1.46,1.23-1.79,2.46-1.79,1.41,0,2.19.56,2.19,1.79v12.62c0,1.23-.78,1.8-2.19,1.8-1.23,0-2.24-.34-2.46-1.8-.45-3.14-1.41-4-4.94-4H64.77v9.26c0,3.59.9,4.6,3.93,4.6h4.43c5.55,0,7.57-3,9.2-5.67a2.71,2.71,0,0,1,2.58-1.51c1.68,0,2.24.67,1.9,2.46l-1.45,7.69A1.84,1.84,0,0,1,83.34,156.89Z" fill="#1F513F"></path><path d="M110.48,155v-2.41a12.51,12.51,0,0,1-9.59,4.76c-6,0-11.33-5.77-11.33-15.14S95.39,127,102.91,127a13.4,13.4,0,0,1,7.57,1.86v-8.08L108,119.65a2,2,0,0,1-1.4-1.91,1.69,1.69,0,0,1,1.46-2l6.51-1.63a9.09,9.09,0,0,1,2.13-.28c1.46,0,2.3.62,2.3,2.13v33.65l3,2.13a1.87,1.87,0,0,1,.89,1.69,1.62,1.62,0,0,1-1.45,1.79l-6.51,1.63a9.23,9.23,0,0,1-2.13.28C111.32,157.17,110.48,156.55,110.48,155Zm-5.22-3.59a6.65,6.65,0,0,0,5.22-2.47V138.1c0-5.1-2.64-6.95-5.83-6.95-3.87,0-5.78,3.53-5.78,9C98.87,147.24,101.39,151.45,105.26,151.45Z" fill="#1F513F"></path><path d="M137.45,129.35V151.9l2.19.67c1.29.45,1.79.9,1.79,2.19s-.44,2.13-1.9,2.13H126.68c-1.46,0-1.85-.79-1.85-2.13s.45-1.74,1.91-2.19l2.19-.67V137.65L126,135a2.34,2.34,0,0,1-.9-1.8,2.23,2.23,0,0,1,1.41-2.19l6.5-3.19a4.4,4.4,0,0,1,2.19-.51C136.61,127.33,137.45,128,137.45,129.35Zm-10.09-10.54a5.17,5.17,0,0,1,10.32,0,5.17,5.17,0,0,1-10.32,0Z" fill="#1F513F"></path><path d="M142.5,130.42a2.28,2.28,0,0,1,1.62-2.36,10.8,10.8,0,0,0,6.4-5.66,2.67,2.67,0,0,1,2.52-1.52c1.29,0,2,.56,2,1.91v4.77h4.77c1.4,0,1.8.61,1.8,2.24,0,1.79-.4,2.47-1.8,2.47H155v15.87c0,2.69,1.52,3.7,3.37,3.7a22,22,0,0,0,2.41-.34c.79,0,1.4.45,1.4,1.58a2.67,2.67,0,0,1-1.18,2.29,11,11,0,0,1-6.67,2c-5.22,0-7.85-2.75-7.85-8.3V132.27h-2.36A1.62,1.62,0,0,1,142.5,130.42Z" fill="#1F513F"></path><path d="M164.09,142.25c0-9.2,6.9-15.2,15.36-15.2,9.09,0,15.32,6,15.32,15.2s-6.85,15.14-15.32,15.14C170.37,157.39,164.09,151.39,164.09,142.25Zm14.64-10.54c-3.43,0-5.33,3-5.33,9s1.68,12.06,6.67,12.06c3.42,0,5.39-3,5.39-8.58C185.46,137.82,183.72,131.71,178.73,131.71Z" fill="#1F513F"></path><path d="M210,129.35V133c2.19-3.87,4.38-5.84,7.12-5.84a5.08,5.08,0,0,1,4.83,4.71,5.19,5.19,0,0,1-4.6,4.6,2.58,2.58,0,0,1-2.13-1.23,2.66,2.66,0,0,0-2-1.12c-1.18,0-2.19,1.12-3.2,2.63V151.9l2,.67c1.46.51,1.8.9,1.8,2.19s-.45,2.13-1.91,2.13H199.25c-1.46,0-1.85-.79-1.85-2.13s.45-1.74,1.91-2.19l2.18-.67V137.65L198.58,135a2.34,2.34,0,0,1-.9-1.8,2.22,2.22,0,0,1,1.4-2.19l6.51-3.19a4.24,4.24,0,0,1,2.18-.51C209.18,127.33,210,128,210,129.35Z" fill="#1F513F"></path><path d="M235.09,127a18,18,0,0,1,7.34,1.3,2.25,2.25,0,0,1,1.68,2.29l.17,3.87c.06,1.24-.28,2-2,2a2.31,2.31,0,0,1-2.47-1.68A5.19,5.19,0,0,0,235,131c-1.9,0-2.86.84-2.86,2.47s1.4,2.53,5.44,4.54c6.23,2.81,8.64,5.72,8.64,10.1,0,5.21-3.7,9.36-11.22,9.36-4.82,0-7.51-1.06-8.8-1.73a2.71,2.71,0,0,1-1.68-2.86l-.29-4c0-1.29.45-2,2-2a2.6,2.6,0,0,1,2.75,1.85c1.17,3,3.42,4.71,6.11,4.71,2.3,0,3.36-1.06,3.36-2.92s-1.51-2.91-5.21-4.76c-6-2.64-8.69-5.39-8.69-9.93C224.49,131,228.24,127,235.09,127Z" fill="#1F513F"></path><path d="M247.3,123.24a3.19,3.19,0,0,1,3.45-3.2c2.36,0,4.29,1.72,4.29,5a8,8,0,0,1-4.92,7.32,2.75,2.75,0,0,1-1.22.25,1.13,1.13,0,0,1-1.18-1.18,1.29,1.29,0,0,1,.8-1.22c1.68-1,2.44-2.06,2.44-3.11,0-.59-.29-.84-1.18-1A2.71,2.71,0,0,1,247.3,123.24Z" fill="#1F513F"></path><path d="M55.39,203.92c0-12.45,9.65-20.75,22.43-20.75a43.26,43.26,0,0,1,11.5,1.46,2.31,2.31,0,0,1,1.91,2.52l.28,6.79c0,1.46-.56,2.13-2,2.13a2.39,2.39,0,0,1-2.69-1.85c-1.46-4-4-6.28-9-6.28-7.12,0-11.72,4.82-11.72,14.75,0,9.7,4.43,17.1,12.85,17.1,5,0,7.29-2.58,8.3-6.17A2.59,2.59,0,0,1,90,211.44c1.46,0,2.19.61,2.13,2.07l-.44,6.62c-.12,1.74-.62,2.47-2,3a38.57,38.57,0,0,1-11.61,1.52C64.7,224.62,55.39,216.32,55.39,203.92Z" fill="#1F513F"></path><path d="M127.29,203.81V219l2.18.68c1.46.44,2,.89,2,2.18s-.45,2.13-1.91,2.13H117c-1.46,0-1.91-.78-1.91-2.13s.34-1.68,1.8-2.18l2-.68V205.21c0-2.13-1-4.77-4.15-4.77a8.87,8.87,0,0,0-6.23,2.92V219l2,.68c1.45.5,1.79.89,1.79,2.18s-.45,2.13-1.91,2.13H97.73c-1.46,0-1.85-.78-1.85-2.13s.45-1.74,1.91-2.18L100,219V187.83l-2.46-1.13c-1-.45-1.46-1-1.46-1.9a1.7,1.7,0,0,1,1.46-2l6.56-1.62a8.34,8.34,0,0,1,2.07-.28c1.46,0,2.3.61,2.3,2.13v16.66c2.64-2.86,5.78-5.5,10.32-5.5C123.59,194.22,127.29,198,127.29,203.81Z" fill="#1F513F"></path><path d="M133.45,209.31c0-9.2,6.9-15.2,15.37-15.2,9.09,0,15.31,6,15.31,15.2s-6.84,15.14-15.31,15.14C139.73,224.45,133.45,218.45,133.45,209.31Zm14.64-10.55c-3.42,0-5.33,3-5.33,9s1.69,12,6.68,12c3.42,0,5.38-3,5.38-8.58C154.82,204.88,153.08,198.76,148.09,198.76Z" fill="#1F513F"></path><path d="M179.44,196.41V219l2.19.68c1.29.44,1.79.89,1.79,2.18s-.45,2.13-1.91,2.13H168.67c-1.46,0-1.85-.78-1.85-2.13s.45-1.74,1.91-2.18l2.18-.68V204.71L168,202.07a2.33,2.33,0,0,1-.9-1.79,2.21,2.21,0,0,1,1.4-2.19l6.51-3.2a4.47,4.47,0,0,1,2.19-.5C178.6,194.39,179.44,195.06,179.44,196.41Zm-10.1-10.55a5.17,5.17,0,0,1,10.32,0,5.17,5.17,0,0,1-10.32,0Z" fill="#1F513F"></path><path d="M206.25,204.82c-1.52,0-2.08-1.07-3-3.59-.61-1.91-1.57-2.92-3.53-2.92-3,0-5,2.81-5,8.08,0,7.85,2.75,11.67,8.19,11.67a9.76,9.76,0,0,0,6.73-2.75,1.77,1.77,0,0,1,1.12-.45,1.57,1.57,0,0,1,1.68,1.62,2.84,2.84,0,0,1-.17.9c-1.62,4-5.94,7.07-12.17,7.07-8.64,0-14.36-5.67-14.36-15.31,0-9,6.17-15.09,15.54-15.09a15.61,15.61,0,0,1,6.95,1.57c1.91.95,3.48,2.47,3.48,4.21C211.74,202.18,208.54,204.82,206.25,204.82Z" fill="#1F513F"></path><path d="M239.61,208.35H223.8c.39,6.45,3,9.65,8.19,9.65a10.63,10.63,0,0,0,7.06-2.58,1.9,1.9,0,0,1,1.12-.39,1.54,1.54,0,0,1,1.74,1.57,2.25,2.25,0,0,1-.22,1c-1.68,4.09-6.23,6.9-12.4,6.9-8.86,0-14.47-5.67-14.47-15.31,0-9,6.28-15,14.36-15,7.74,0,12.4,5.27,12.4,12.39C241.58,207.85,241,208.35,239.61,208.35Zm-15.76-3.87h9.26c-.23-4-1.85-6.11-4.43-6.11S224.25,200.33,223.85,204.48Z" fill="#1F513F"></path><path d="M160.14,78.41c0,.87-.5,1.81-1.26,1.81a4.43,4.43,0,0,1-1.39-.18,7.21,7.21,0,0,0-1.71-.21,10.07,10.07,0,0,1-1.47-.08,10.5,10.5,0,0,0-1.6-.11c-.71,0-1.18.71-1.18,1.71a8.32,8.32,0,0,1-.21,2,8.3,8.3,0,0,0-.26,2.23,9.76,9.76,0,0,0,.21,2.2,11,11,0,0,1,.15,2,1.52,1.52,0,0,1-1.54,1.49c-.89,0-1.08-.81-1.08-1.49a8.29,8.29,0,0,0-.29-2.26,6.49,6.49,0,0,1-.23-1.91,9.47,9.47,0,0,0-.24-2.23,8.32,8.32,0,0,1-.21-2s0-.13,0-.21a1,1,0,0,0-.13-.89.87.87,0,0,0-.69-.32,9.41,9.41,0,0,0-1.6.11c-.36,0-.73.08-1.47.08l-3.09,0A2,2,0,0,1,139,78.41c0-.76,1-1.28,1.89-1.28a4.34,4.34,0,0,0,1.79-.37A2.74,2.74,0,0,1,144,76.5c.73,0,1.13,0,1.49,0s.79,0,1.58,0a1,1,0,0,0,.86-.34,1.16,1.16,0,0,0,.19-.79,8.36,8.36,0,0,0-.08-1,4.62,4.62,0,0,1-.08-.84c0-.08,0-.13,0-.19a.82.82,0,0,0-.18-.73,1,1,0,0,0-.73-.26c-1,0-1.47,0-2,0s-1,0-2,0a1.71,1.71,0,1,1,0-3.41,14.82,14.82,0,0,1,1.89.11,18.15,18.15,0,0,0,2,.1c.18,0,1.15-.08,1.15-1.44a3.25,3.25,0,0,0-.21-1.15,1.73,1.73,0,0,1-.1-.87,1,1,0,0,0-.11-.71.86.86,0,0,0-.73-.31.83.83,0,0,1-.5-.16,2,2,0,0,0-1.24-.42c-.57,0-.94-.08-.94-1.18s.37-1.21.94-1.21a2.21,2.21,0,0,0,1.19-.34.92.92,0,0,1,.55-.16c.7,0,1.81-.34,1.81-1.23a8.87,8.87,0,0,0-.08-1.07,3.31,3.31,0,0,1-.08-.84,1.91,1.91,0,0,0-1.39-1.6,1.24,1.24,0,0,1-1.13-1.29c0-.76.37-1.63,1.1-1.76.47-.08,1.55-.23,1.55-1.15a13.35,13.35,0,0,0-.16-2.21,10.86,10.86,0,0,1-.15-2c0-.84.57-1.78,1.36-1.78A1.81,1.81,0,0,1,151.5,48a18.44,18.44,0,0,1-.1,2,18.94,18.94,0,0,0-.11,2.15,1.35,1.35,0,0,0,1.26,1.28c.71.13.84,1.08.84,1.63,0,1-.36,1.18-.92,1.29a1.8,1.8,0,0,0-1.28,1.6,7.14,7.14,0,0,1-.05.86,8,8,0,0,0-.06,1c0,.79.87,1.23,1.68,1.23a1.31,1.31,0,0,1,.61.14,2.75,2.75,0,0,0,1.13.23A1.39,1.39,0,0,1,156,62.88c0,.92-.79,1.89-1.52,1.89-.45,0-.69,0-.9,0s-.44,0-1,0a1.1,1.1,0,0,0-.89.26,1,1,0,0,0-.29.74v.92a7.56,7.56,0,0,0,0,.94c0,.68.48,1.65,1.34,1.65a7.79,7.79,0,0,0,2.13-.26,7,7,0,0,1,1.81-.24c.79,0,1.28.92,1.28,1.79s-.55,1.89-1.28,1.89a10.84,10.84,0,0,1-2.07-.21,10.27,10.27,0,0,0-2.31-.24,1.45,1.45,0,0,0-1.34,1.5,3.45,3.45,0,0,0,.18,1.15,1.6,1.6,0,0,1,.13.71,1.39,1.39,0,0,0,1.47,1.31,8,8,0,0,1,1.45.11,10.18,10.18,0,0,0,1.62.13,9.93,9.93,0,0,0,1.63-.11,10,10,0,0,1,1.47-.08C159.72,76.78,160.14,77.6,160.14,78.41Z" fill="#1F513F"></path><path d="M124.88,79.54A1.4,1.4,0,0,1,123.59,81a7.89,7.89,0,0,1-1.65-.14,10.45,10.45,0,0,0-2-.13c-.55,0-1.1.42-1.08,1.52a1.28,1.28,0,0,1-.13.48,3.47,3.47,0,0,0-.18.81v.21a6.32,6.32,0,0,0,0,1.23,20,20,0,0,1,0,2.21v1.28c0,.53-.13,1-1.07,1s-1.24-.32-1.26-1c0-.34,0-.7,0-1.07l0-.53c0-.7,0-1.41-.11-2.12s-.08-1.34-.1-2v-.5a1.39,1.39,0,0,0-.32-.87,1.26,1.26,0,0,0-.89-.37h0A7.29,7.29,0,0,1,113,80.9a9.61,9.61,0,0,0-1.89-.15c-.7,0-1.49-.48-1.49-1.21a1.44,1.44,0,0,1,1.49-1.26,17.57,17.57,0,0,0,2-.13,15.74,15.74,0,0,1,1.88-.11c.4,0,1.08-.15,1.08-1.2v-1c0-.34,0-.65,0-1.1,0-1.28-2.89-1.36-2.94-1.36-1,0-1.13-.47-1.13-.95s.13-1,1.13-1c0,0,3.15,0,3.15-1.31a4.77,4.77,0,0,1,.1-.95,7.19,7.19,0,0,0,.11-1.18,2.16,2.16,0,0,0-1.47-1.65c-1.05-.18-1.05-.76-1.05-1a1.14,1.14,0,0,1,.86-1.28c1.18-.21,1.45-.76,1.45-1.18a19.34,19.34,0,0,1,.07-2c0-.55.08-1.08.08-2.07,0-.66.24-1.71.89-1.71s.92,1.05.92,1.71c0,.94,0,1.6,0,2.28s-.05,1.31-.05,2.28,1.1.95,2,1a1.53,1.53,0,0,0,.32,0c.26,0,.47.6.47,1s-.84.76-1.57.89-1.13,1.16-1.13,1.65,0,.74,0,1a5.38,5.38,0,0,1,0,.84A1.71,1.71,0,0,0,120,71.2a6.26,6.26,0,0,0,.92-.08,2.38,2.38,0,0,1,.68-.08c.74,0,1.65.63,1.65,1.36A1.47,1.47,0,0,1,122,73.92a6.32,6.32,0,0,0-1,.08,8,8,0,0,1-.92.06c-1.18,0-1.44.55-1.44,1a4.56,4.56,0,0,0,.1,1,3.65,3.65,0,0,1,.08.74c0,.86.47,1.47,1.16,1.47a17.44,17.44,0,0,1,1.86.07c.5,0,1,.08,1.94.08C124.48,78.46,124.88,78.83,124.88,79.54Z" fill="#1F513F"></path><path d="M189.65,79.54A1.31,1.31,0,0,1,188.47,81c-.89,0-1.34,0-1.79-.06s-.91,0-1.83,0a1.39,1.39,0,0,0-1.37,1.36c0,.34,0,1.1,0,2,0,1.36-.05,3.06-.05,4.22a1.3,1.3,0,0,1-1.16,1.42A1.33,1.33,0,0,1,181,88.46v-2c0-1.07,0-2.28,0-4.22a1.36,1.36,0,0,0-1.34-1.34c-.89,0-1.33,0-1.78,0s-.92,0-1.84,0c-.73,0-1.62-.58-1.62-1.31s.86-1.26,1.62-1.26c.92,0,1.39,0,1.87,0a12.26,12.26,0,0,1,1.75-.08c.53,0,1.13-.34,1.13-1.31a2.61,2.61,0,0,1,.08-.74,4.82,4.82,0,0,0,.08-1c0-1.4-.55-1.68-1-1.68a6,6,0,0,0-.9,0,6.2,6.2,0,0,1-.76,0c-.7,0-1-.37-1-1.13,0-.55.19-1.18,1-1.18a3.63,3.63,0,0,0,1-.1,2.15,2.15,0,0,1,.65-.08c.66,0,1.63-.53,1.63-1.34a3.79,3.79,0,0,1,.08-.84,5.42,5.42,0,0,0,.08-1.18,2.25,2.25,0,0,0-1.47-1.76c-1.31-.21-1.34-.57-1.34-.78a1.84,1.84,0,0,1,1.08-1.76c.07,0,.13,0,.21,0,.78-.05,1.2-.39,1.18-1l-.13-3.86c0-.83.36-1.81.94-1.83h0c.63,0,1.36.94,1.39,1.76s0,1.44,0,1.94,0,1,.06,1.91a1.36,1.36,0,0,0,.47,1,1.19,1.19,0,0,0,.78.31,1.17,1.17,0,0,1,.82.21,1.52,1.52,0,0,1,.29,1c0,.34,0,.9-1.52,1-.79.08-1.24,1.15-1.24,1.7a3.9,3.9,0,0,1-.05,1c0,.32,0,.64,0,1.08,0,.81.92,1.26,1.55,1.26.39,0,.68,0,1,0h1a1.55,1.55,0,0,1,1.49,1.41c0,.34-.05,1.52-.84,1.52-.39,0-.78,0-1.15.06s-.71,0-1.1,0a1.27,1.27,0,0,0-1.39.9,2.38,2.38,0,0,0,0,1.31,4.18,4.18,0,0,1,0,.63A1.41,1.41,0,0,0,185,78.28c.89,0,1.36,0,1.84,0s1,0,1.91,0C189.05,78.38,189.65,78.38,189.65,79.54Z" fill="#1F513F"></path></svg>