<svg xmlns:xlink="http://www.w3.org/1999/xlink" xmlns="http://www.w3.org/2000/svg" class="svg-icon svg-icon social-links__item_facebook" width="24" height="24"><defs><symbol xmlns="http://www.w3.org/2000/svg" viewBox="0 0 24 24" fill="none" id="colorless-facebook"><path d="M11.9998 3C7.0294 3 3 7.0294 3 11.9998C3 16.2204 5.90586 19.762 9.82582 20.7347V14.7502H7.97006V11.9998H9.82582V10.8147C9.82582 7.75154 11.2122 6.33173 14.2195 6.33173C14.7898 6.33173 15.7736 6.44369 16.1761 6.55529V9.04824C15.9637 9.02592 15.5947 9.01476 15.1364 9.01476C13.6608 9.01476 13.0906 9.57383 13.0906 11.0271V11.9998H16.0303L15.5252 14.7502H13.0906V20.9338C17.5469 20.3956 21 16.6012 21 11.9998C20.9996 7.0294 16.9702 3 11.9998 3Z" fill="#595959"></path></symbol></defs>
<use xlink:href="#colorless-facebook" fill="#646473"></use>
</svg>