<svg xmlns:xlink="http://www.w3.org/1999/xlink" xmlns="http://www.w3.org/2000/svg" class="svg-icon svg-icon social-links__item_reddit" width="24" height="24"><defs><symbol xmlns="http://www.w3.org/2000/svg" viewBox="0 0 24 24" fill="none" id="colorless-reddit"><path fill-rule="evenodd" clip-rule="evenodd" d="M21 12C21 16.9706 16.9706 21 12 21C7.02944 21 3 16.9706 3 12C3 7.02944 7.02944 3 12 3C16.9706 3 21 7.02944 21 12ZM16.6843 10.6842C17.4106 10.6842 18.0001 11.2737 18.0001 12C18.0001 12.5368 17.6738 13 17.2422 13.2105C17.2632 13.3368 17.2738 13.4631 17.2738 13.6C17.2738 15.621 14.9264 17.2526 12.0211 17.2526C9.11586 17.2526 6.76849 15.621 6.76849 13.6C6.76849 13.4631 6.77902 13.3263 6.80007 13.2C6.33691 12.9895 6.02112 12.5368 6.02112 12C6.02112 11.2737 6.6106 10.6842 7.33691 10.6842C7.68428 10.6842 8.0106 10.8316 8.24218 11.0526C9.14744 10.3895 10.4001 9.97893 11.8001 9.93682L12.4632 6.79998C12.4843 6.73682 12.5159 6.68419 12.5685 6.65261C12.6211 6.62103 12.6843 6.61051 12.7474 6.62103L14.9264 7.08419C15.0738 6.7684 15.3895 6.55788 15.758 6.55788C16.2738 6.55788 16.6948 6.97893 16.6948 7.49472C16.6948 8.01051 16.2738 8.43156 15.758 8.43156C15.2527 8.43156 14.8422 8.03156 14.8211 7.53682L12.8738 7.1263L12.2738 9.93682C13.6422 9.98945 14.8843 10.4105 15.779 11.0526C16.0106 10.821 16.3264 10.6842 16.6843 10.6842ZM9.93691 12C9.42113 12 9.00007 12.421 9.00007 12.9368C9.00007 13.4526 9.42113 13.8737 9.93691 13.8737C10.4527 13.8737 10.8738 13.4526 10.8738 12.9368C10.8738 12.421 10.4527 12 9.93691 12ZM12.0106 16.0947C12.3685 16.0947 13.5895 16.0526 14.2317 15.4105C14.3264 15.3158 14.3264 15.1684 14.2527 15.0631C14.158 14.9684 14.0001 14.9684 13.9053 15.0631C13.4948 15.4631 12.6422 15.6105 12.0211 15.6105C11.4001 15.6105 10.5369 15.4631 10.1369 15.0631C10.0422 14.9684 9.88428 14.9684 9.78955 15.0631C9.69481 15.1579 9.69481 15.3158 9.78955 15.4105C10.4211 16.0421 11.6527 16.0947 12.0106 16.0947ZM13.1264 12.9368C13.1264 13.4526 13.5474 13.8737 14.0632 13.8737C14.579 13.8737 15.0001 13.4526 15.0001 12.9368C15.0001 12.421 14.579 12 14.0632 12C13.5474 12 13.1264 12.421 13.1264 12.9368Z" fill="#595959"></path></symbol></defs>
<use xlink:href="#colorless-reddit" fill="#646473"></use>
</svg>